<?xml version="1.0" standalone="no"?>
<!DOCTYPE svg PUBLIC "-//W3C//DTD SVG 20010904//EN"
 "http://www.w3.org/TR/2001/REC-SVG-20010904/DTD/svg10.dtd">
<svg version="1.0" xmlns="http://www.w3.org/2000/svg"
 width="512.000000pt" height="512.000000pt" viewBox="0 0 512.000000 512.000000"
 preserveAspectRatio="xMidYMid meet">

<g transform="translate(0.000000,512.000000) scale(0.100000,-0.100000)"
fill="#FFFFFF" stroke="none">
<path d="M4180 4233 c-45 -18 -528 -367 -543 -392 -10 -17 -17 -50 -17 -79 0
-55 -12 -36 229 -380 116 -166 141 -195 178 -213 100 -48 208 22 208 134 0 48
-5 60 -68 150 -38 54 -66 101 -63 104 10 10 230 -105 297 -156 191 -145 327
-353 390 -596 34 -130 34 -360 0 -489 -99 -380 -368 -658 -746 -773 -84 -25
-103 -27 -275 -27 -222 -1 -292 14 -465 99 -178 88 -314 205 -420 364 -112
169 -161 336 -175 590 -10 188 -32 310 -80 446 -159 452 -568 797 -1046 880
-114 20 -345 20 -460 0 -190 -34 -402 -124 -566 -242 -99 -71 -256 -234 -323
-333 -319 -477 -310 -1091 22 -1552 71 -99 235 -259 333 -325 92 -61 223 -128
309 -158 l65 -22 -92 -63 c-72 -50 -97 -74 -113 -108 -48 -99 22 -207 135
-207 51 0 55 3 311 182 159 111 267 193 278 211 10 18 17 50 17 80 0 55 12 36
-229 380 -116 166 -141 195 -178 213 -100 48 -208 -22 -208 -134 0 -48 5 -60
68 -150 38 -54 66 -101 63 -104 -10 -10 -230 105 -297 156 -191 145 -332 362
-392 600 -31 127 -31 360 2 486 107 411 417 707 830 790 116 24 352 16 466
-14 103 -28 281 -116 366 -180 140 -107 261 -261 330 -420 57 -134 79 -237 89
-428 11 -198 28 -297 76 -436 160 -463 565 -806 1049 -891 117 -21 342 -21
460 0 488 84 910 452 1058 920 89 282 88 563 -4 839 -72 216 -176 381 -343
543 -146 142 -316 249 -485 306 l-64 22 92 65 c70 49 96 74 112 107 34 68 15
135 -53 185 -26 20 -101 31 -128 20z"/>
<path d="M596 2858 c-14 -19 -16 -65 -16 -300 0 -342 -11 -318 151 -318 136 0
177 11 239 67 65 58 92 124 98 234 8 152 -41 256 -147 311 -50 26 -61 28 -182
28 -121 0 -129 -1 -143 -22z m273 -149 c34 -32 51 -81 51 -149 0 -115 -44
-170 -136 -170 l-54 0 0 170 0 170 58 0 c46 0 63 -5 81 -21z"/>
<path d="M1194 2859 c-18 -20 -19 -40 -19 -300 0 -350 -14 -324 179 -324 155
0 176 9 176 75 0 56 -21 69 -120 72 l-85 3 -3 46 -3 46 77 5 c69 5 80 8 101
32 28 33 29 56 3 89 -19 24 -29 26 -98 29 l-77 3 -3 46 -3 46 85 5 c102 5 126
20 126 78 0 64 -16 70 -177 70 -130 0 -141 -2 -159 -21z"/>
<path d="M1658 2863 c-8 -10 -18 -26 -21 -36 -9 -23 169 -536 196 -564 26 -29
89 -31 116 -4 18 18 191 518 191 552 0 32 -40 69 -74 69 -49 0 -69 -30 -121
-190 -26 -80 -50 -149 -53 -154 -3 -5 -30 63 -61 151 -31 88 -62 168 -70 177
-18 22 -83 21 -103 -1z"/>
<path d="M3087 2860 c-76 -29 -132 -82 -169 -158 -28 -57 -33 -77 -33 -142 0
-65 4 -85 33 -143 61 -123 168 -183 311 -175 122 7 215 69 268 176 24 49 28
69 28 142 0 65 -5 96 -21 131 -31 67 -87 124 -156 159 -53 26 -72 30 -137 30
-50 -1 -93 -7 -124 -20z m221 -159 c94 -66 94 -216 0 -282 -48 -35 -134 -38
-188 -8 -57 32 -85 80 -85 149 1 68 25 112 80 146 53 33 144 30 193 -5z"/>
<path d="M3650 2860 c-19 -19 -20 -33 -20 -294 0 -261 1 -274 21 -300 27 -34
79 -36 109 -4 17 18 20 35 20 104 l0 81 64 5 c81 7 140 38 181 96 27 40 30 51
30 122 0 71 -3 82 -30 121 -16 23 -50 53 -74 66 -39 20 -58 23 -163 23 -105 0
-120 -2 -138 -20z m242 -147 c18 -16 24 -59 10 -79 -13 -19 -50 -34 -86 -34
l-36 0 0 65 0 65 47 0 c29 0 53 -6 65 -17z"/>
<path d="M4305 2861 c-75 -34 -125 -122 -110 -194 11 -51 51 -104 92 -122 21
-9 71 -31 112 -48 88 -38 104 -56 76 -87 -31 -34 -117 -25 -175 18 -52 38 -70
40 -106 9 -55 -48 -26 -112 75 -164 53 -28 73 -33 132 -33 110 0 181 41 220
125 23 49 24 84 3 133 -25 61 -69 97 -167 137 -109 45 -126 57 -107 79 20 25
94 20 145 -9 49 -29 86 -26 110 8 35 51 4 110 -77 147 -57 26 -168 27 -223 1z"/>
</g>
</svg>
